<?xml version="1.0" encoding="utf-8"?>
<!-- Generator: Adobe Illustrator 25.2.1, SVG Export Plug-In . SVG Version: 6.00 Build 0)  -->
<svg version="1.1" id="Layer_1" xmlns="http://www.w3.org/2000/svg" xmlns:xlink="http://www.w3.org/1999/xlink" x="0px" y="0px"
	 viewBox="0 0 24 24" style="enable-background:new 0 0 24 24;" xml:space="preserve">
<style type="text/css">
	.st0{fill:none;}
	.st1{fill:#304659;}
</style>
<path class="st0" d="M0,0h24v24H0V0z"/>
<path class="st1" d="M10,9c-0.6,0-1,0.4-1,1s0.4,1,1,1s1-0.4,1-1S10.6,9,10,9z M10,13c-0.6,0-1,0.4-1,1s0.4,1,1,1s1-0.4,1-1
	S10.6,13,10,13z M7,9.5c-0.3,0-0.5,0.2-0.5,0.5s0.2,0.5,0.5,0.5s0.5-0.2,0.5-0.5S7.3,9.5,7,9.5z M10,16.5c-0.3,0-0.5,0.2-0.5,0.5
	s0.2,0.5,0.5,0.5s0.5-0.2,0.5-0.5S10.3,16.5,10,16.5z M7,13.5c-0.3,0-0.5,0.2-0.5,0.5s0.2,0.5,0.5,0.5s0.5-0.2,0.5-0.5
	S7.3,13.5,7,13.5z M10,7.5c0.3,0,0.5-0.2,0.5-0.5S10.3,6.5,10,6.5S9.5,6.7,9.5,7S9.7,7.5,10,7.5z M14,9c-0.6,0-1,0.4-1,1s0.4,1,1,1
	s1-0.4,1-1S14.6,9,14,9z M14,7.5c0.3,0,0.5-0.2,0.5-0.5S14.3,6.5,14,6.5S13.5,6.7,13.5,7S13.7,7.5,14,7.5z M17,13.5
	c-0.3,0-0.5,0.2-0.5,0.5s0.2,0.5,0.5,0.5s0.5-0.2,0.5-0.5S17.3,13.5,17,13.5z M17,9.5c-0.3,0-0.5,0.2-0.5,0.5s0.2,0.5,0.5,0.5
	s0.5-0.2,0.5-0.5S17.3,9.5,17,9.5z M12,2C6.5,2,2,6.5,2,12s4.5,10,10,10s10-4.5,10-10S17.5,2,12,2z M12,20c-4.4,0-8-3.6-8-8
	s3.6-8,8-8s8,3.6,8,8S16.4,20,12,20z M14,16.5c-0.3,0-0.5,0.2-0.5,0.5s0.2,0.5,0.5,0.5s0.5-0.2,0.5-0.5S14.3,16.5,14,16.5z M14,13
	c-0.6,0-1,0.4-1,1s0.4,1,1,1s1-0.4,1-1S14.6,13,14,13z"/>
</svg>
