      <svg
        xmlns="http://www.w3.org/2000/svg"
        height="220"
        width="16"
        id="Layer_1"
        viewBox="0 0 17.4 273.4"
      >
        <circle
          fill="#1d1d1b"
          xmlns="http://www.w3.org/2000/svg"
          class="st0"
          cx="8.7"
          cy="44.7"
          r="3.3"
        />
        <path
          fill="#1d1d1b"
          xmlns="http://www.w3.org/2000/svg"
          class="st0"
          d="M8.7 36
				C3.9 36 0 39.9 0 44.7
				s3.9 8.7 8.7 8.7
				c1.7 0 3.3-.5 4.7-1.4
				L12 49.2
				H5.4
				L4.5 51
				c-2.1-1.4-3.4-3.7-3.4-6.3 0-4.2 3.4-7.6 7.6-7.6 4.2 0 7.6 3.4 7.6 7.6 0 2.1-.9 4-2.2 5.4
				l.5 1
				c1.7-1.6 2.8-3.9 2.8-6.4 0-4.8-3.9-8.7-8.7-8.7
				z"
        />
      </svg>